<?xml version="1.0" standalone="no"?>
<!DOCTYPE svg PUBLIC "-//W3C//DTD SVG 20010904//EN"
 "http://www.w3.org/TR/2001/REC-SVG-20010904/DTD/svg10.dtd">
<svg version="1.0" xmlns="http://www.w3.org/2000/svg"
 width="1254.000000pt" height="1254.000000pt" viewBox="0 0 1254.000000 1254.000000"
 preserveAspectRatio="xMidYMid meet">

<g transform="translate(0.000000,1254.000000) scale(0.100000,-0.100000)"
fill="#000000" stroke="none">
<path d="M3005 11700 c-567 -34 -1049 -240 -1429 -609 -364 -354 -585 -792
-660 -1304 -35 -240 -37 -451 -33 -3642 4 -3343 1 -3186 53 -3445 66 -331 234
-689 448 -956 318 -396 786 -677 1290 -774 244 -47 108 -45 3601 -45 3167 0
3305 1 3430 19 522 75 957 292 1305 653 340 351 527 747 607 1278 17 114 18
295 18 3425 0 3513 2 3372 -46 3615 -158 795 -706 1425 -1459 1676 -119 39
-247 68 -429 96 -97 15 -389 17 -3341 18 -1779 1 -3289 -1 -3355 -5z m6704
-1305 c61 -31 60 -38 -49 -478 -107 -433 -109 -437 -173 -437 -25 0 -50 20
-153 122 l-123 121 -453 -445 c-249 -245 -487 -477 -529 -517 l-76 -71 9 -48
c43 -222 -185 -411 -405 -336 -91 31 -197 156 -197 233 0 29 -3 30 -227 120
l-228 90 -35 -33 c-77 -74 -206 -105 -300 -72 l-45 16 -535 -535 c-431 -430
-541 -536 -568 -541 -24 -5 -55 2 -118 26 l-85 32 -48 -45 c-26 -25 -63 -53
-82 -63 -43 -22 -164 -30 -225 -15 l-48 12 -447 -447 c-443 -443 -447 -447
-437 -476 15 -41 3 -140 -23 -191 -29 -58 -84 -114 -144 -145 -42 -23 -62 -27
-130 -26 -124 1 -201 44 -264 149 -43 71 -54 172 -27 253 23 67 92 144 161
177 64 32 164 36 233 11 l43 -16 438 435 437 435 0 108 c-1 91 2 113 20 147
79 145 256 210 402 146 64 -29 144 -113 164 -173 13 -39 20 -45 73 -67 l59
-23 498 500 497 499 -9 34 c-15 50 -12 118 6 179 18 61 92 142 159 175 61 30
204 28 265 -3 83 -44 144 -117 165 -200 l12 -44 219 -89 c120 -49 223 -89 227
-89 5 0 29 18 54 39 60 53 127 75 212 69 37 -3 80 -12 96 -21 l30 -16 195 192
c107 105 340 335 517 511 l323 320 -73 65 c-166 150 -176 165 -139 210 12 16
63 35 192 70 178 49 410 115 555 156 100 28 100 28 134 10z m-262 -1642 c20
-9 44 -30 54 -47 18 -30 19 -75 19 -1257 l0 -1225 -32 -24 -33 -23 23 25 c21
23 22 31 20 179 -1 85 -3 126 -5 92 -3 -49 -7 -63 -20 -63 -10 0 -13 -6 -9
-16 4 -11 2 -15 -8 -11 -29 11 -25 -7 4 -19 28 -12 30 -16 29 -66 l0 -53 -21
48 c-20 42 -25 47 -54 47 -18 0 -36 -4 -39 -10 -3 -5 -11 -10 -16 -10 -6 0 -7
6 -2 13 4 6 -5 4 -20 -6 -15 -10 -32 -15 -37 -12 -5 3 -11 1 -15 -5 -3 -5 -16
-10 -27 -10 -12 0 -19 -3 -15 -6 9 -9 -21 -36 -32 -29 -6 3 -13 -1 -18 -8 -11
-19 -53 -41 -53 -27 0 5 -11 0 -25 -12 -17 -15 -22 -25 -15 -33 12 -15 1 -28
-14 -16 -21 16 -45 20 -52 9 -4 -6 -3 -8 3 -5 6 4 16 0 23 -8 16 -19 1 -19
-27 0 -20 14 -23 13 -37 -7 -9 -12 -16 -18 -16 -12 0 5 -9 10 -20 10 -10 0
-17 -2 -15 -4 2 -2 -2 -10 -8 -17 -9 -9 -17 -10 -31 -3 -16 9 -18 7 -13 -11 3
-11 1 -21 -4 -21 -5 0 -9 9 -9 21 0 11 -4 18 -10 14 -5 -3 -7 -12 -3 -20 3 -8
0 -16 -6 -16 -6 -1 -15 -3 -21 -4 -5 -1 -14 -3 -19 -4 -5 0 -12 -9 -16 -20 -4
-13 -12 -17 -29 -14 -17 4 -27 -1 -35 -16 -7 -13 -22 -21 -36 -21 -14 0 -26
-4 -26 -10 -1 -5 -2 -14 -3 -19 -2 -16 -16 -25 -16 -10 -1 10 -3 10 -10 -3 -6
-9 -18 -14 -29 -11 -15 4 -19 -3 -25 -43 -3 -26 -6 -103 -6 -171 l0 -125 108
57 c59 32 103 53 97 47 -5 -5 -56 -35 -112 -65 l-103 -55 0 1533 0 1533 27 33
c49 57 54 58 446 59 315 0 363 -2 394 -17z m649 -878 c230 -107 365 -260 426
-481 33 -120 31 -331 -5 -475 -150 -612 -690 -1196 -1553 -1680 -405 -227
-971 -461 -1504 -622 -105 -32 -150 -45 -340 -98 -111 -30 -356 -88 -570 -135
-1449 -314 -2933 -393 -3672 -195 -551 148 -797 478 -678 911 28 104 118 277
197 385 128 172 367 395 590 551 49 35 35 18 -87 -105 -81 -80 -176 -186 -212
-234 -202 -273 -277 -522 -217 -722 12 -39 22 -80 22 -92 1 -11 5 -19 9 -17 3
2 15 -11 25 -29 144 -243 582 -407 1198 -447 812 -52 2020 85 3030 345 656
169 1198 365 1715 621 549 271 953 543 1284 864 195 190 323 348 430 534 125
216 179 387 178 566 0 120 -17 202 -65 300 -39 82 -177 225 -254 264 -47 23
-64 36 -48 36 3 0 48 -20 101 -45z m-2058 -45 c65 -40 62 20 62 -1175 0 -722
-3 -1084 -10 -1080 -6 4 -10 54 -10 117 0 90 -3 115 -17 130 -20 22 -33 23
-33 2 0 -8 -3 -13 -7 -11 -13 8 -33 -19 -33 -44 0 -5 -4 -8 -9 -4 -5 3 -16 -2
-24 -10 -17 -17 -42 -21 -32 -5 4 7 -2 9 -17 6 -36 -7 -58 -17 -58 -27 0 -5
-16 -8 -35 -6 -20 3 -38 1 -40 -3 -3 -5 -15 -6 -27 -2 -14 3 -19 2 -14 -6 5
-8 0 -12 -13 -12 -33 0 -50 -11 -45 -28 3 -9 -2 -6 -10 8 -8 14 -15 19 -16 12
0 -9 -7 -11 -19 -7 -11 3 -23 0 -27 -6 -5 -8 -3 -9 6 -4 8 5 11 4 6 -3 -4 -6
-13 -9 -21 -5 -18 6 -20 -13 -2 -21 6 -3 1 -3 -13 0 -14 4 -27 10 -30 14 -9
12 -50 19 -56 9 -3 -6 -12 -5 -22 3 -9 7 -13 8 -9 2 4 -7 1 -12 -6 -11 -48 1
-81 -4 -68 -12 10 -7 7 -9 -12 -8 -14 1 -23 5 -20 10 2 4 0 7 -6 7 -5 0 -13
-5 -16 -11 -5 -7 -14 -5 -29 4 -20 13 -22 13 -23 -4 -1 -10 2 -19 8 -19 5 0 9
-4 9 -9 0 -4 -12 -6 -26 -3 -15 3 -24 1 -21 -4 3 -5 -6 -10 -20 -11 -16 0 -21
2 -14 7 9 5 6 9 -8 13 -15 3 -22 0 -23 -11 -1 -10 -4 17 -8 58 -4 49 -8 -20
-10 -200 l-5 -275 -5 295 c-3 162 -6 735 -8 1273 -3 1083 -6 1023 61 1066 31
20 48 21 412 21 364 0 381 -1 413 -20z m-1435 -774 c60 -41 57 14 55 -1043 -2
-639 -4 -844 -8 -603 -3 201 -6 348 -8 328 -1 -21 -2 -40 -2 -43 0 -3 -5 -11
-12 -19 -14 -15 -38 -17 -38 -3 0 6 -9 0 -20 -13 -11 -13 -20 -19 -20 -14 0 6
6 16 13 23 10 11 8 12 -9 3 -12 -6 -25 -8 -29 -4 -5 4 -5 -1 -2 -10 8 -23 -15
-24 -47 -2 -17 10 -26 12 -31 4 -3 -6 -3 -10 2 -9 18 3 36 -1 29 -8 -14 -14
-50 -13 -66 2 -15 13 -19 14 -29 1 -9 -11 -9 -15 1 -19 7 -2 10 -7 7 -11 -3
-3 -14 4 -25 16 -10 12 -13 18 -6 14 7 -4 12 -1 12 8 0 21 -17 20 -29 -1 -5
-10 -13 -14 -17 -10 -4 4 -13 -2 -19 -14 -11 -19 -13 -19 -27 -5 -10 10 -28
14 -49 11 -18 -2 -39 0 -45 6 -8 7 -15 6 -20 -2 -4 -8 -3 -9 4 -5 7 4 12 1 12
-9 0 -13 -4 -14 -20 -5 -16 9 -18 8 -14 -5 5 -11 2 -14 -12 -8 -13 5 -16 3
-12 -8 5 -12 -3 -15 -33 -14 -21 0 -39 4 -39 8 0 4 -9 3 -20 -3 -11 -6 -20 -7
-20 -2 0 10 -74 7 -90 -3 -5 -3 -11 -1 -15 5 -8 13 -25 13 -25 -1 0 -5 4 -7
10 -4 6 3 7 -1 4 -9 -3 -9 -10 -16 -16 -16 -5 0 -6 5 -3 10 3 6 1 10 -5 10 -6
0 -8 5 -5 10 3 6 1 10 -4 10 -6 0 -11 -4 -11 -10 0 -5 -8 -10 -18 -10 -10 0
-28 -9 -40 -20 -12 -11 -24 -20 -27 -20 -3 0 -6 19 -7 43 -2 23 -5 -104 -8
-283 -3 -193 -6 83 -8 678 -2 1127 -8 1042 73 1082 38 20 56 20 400 18 334 -3
362 -4 388 -22z m-1413 -751 c63 -32 62 -27 61 -578 -1 -276 -4 -503 -6 -506
-3 -2 -6 169 -7 380 -1 211 -4 344 -5 294 -4 -102 -20 -127 -58 -89 -9 9 -19
13 -23 9 -4 -4 -1 -10 6 -12 6 -3 12 -8 12 -13 0 -12 -55 -6 -73 8 -9 8 -18 9
-21 3 -3 -5 0 -11 6 -14 7 -2 1 -4 -14 -3 -14 0 -26 3 -26 6 1 19 -3 30 -13
30 -5 0 -7 -4 -4 -10 3 -5 1 -10 -5 -10 -6 0 -8 -4 -5 -10 3 -5 -2 -10 -12
-10 -11 0 -25 -6 -32 -12 -11 -10 -13 -10 -7 0 4 6 2 12 -4 12 -6 0 -9 4 -6 8
2 4 -4 8 -14 8 -10 0 -16 -6 -13 -13 3 -7 0 -13 -6 -13 -6 0 -9 -6 -7 -12 1
-7 1 -10 -1 -5 -8 12 -33 8 -31 -5 2 -7 -3 -12 -10 -10 -8 1 -11 -2 -8 -7 4
-5 2 -12 -4 -16 -6 -3 -13 0 -16 8 -7 19 -39 15 -39 -4 0 -22 -33 -43 -49 -30
-17 14 -64 10 -70 -6 -3 -8 1 -10 12 -6 14 5 15 3 5 -7 -9 -10 -15 -10 -26 -2
-8 7 -17 9 -21 5 -3 -4 -16 -8 -27 -10 -14 -2 -18 1 -13 9 4 7 -5 2 -19 -11
-15 -14 -27 -19 -27 -13 0 7 -10 12 -22 12 -12 0 -18 3 -14 7 10 11 36 12 36
2 0 -5 5 -9 12 -9 6 0 3 8 -7 20 -17 19 -18 19 -46 -3 -15 -12 -26 -27 -24
-34 2 -7 -2 -10 -10 -6 -8 3 -12 9 -9 14 3 5 1 9 -5 9 -5 0 -12 -6 -14 -12 -3
-8 -6 -6 -6 4 -1 11 -8 16 -20 13 -11 -2 -22 3 -26 13 -5 15 -8 14 -23 -6 -15
-20 -18 -20 -19 -5 -3 50 -17 123 -22 118 -3 -3 -8 -180 -11 -393 -6 -382 -6
-379 -8 221 -2 671 -4 648 61 687 30 19 53 20 400 20 309 0 373 -2 397 -15z
m4260 -128 c0 -2 -10 -12 -22 -23 l-23 -19 19 23 c18 21 26 27 26 19z m-64
-56 c-40 -44 -456 -325 -456 -308 0 3 48 35 108 73 164 103 273 184 266 196
-4 6 -2 8 3 5 6 -4 28 6 49 22 46 35 53 38 30 12z m-471 -320 c-16 -14 -105
-63 -105 -58 0 5 101 66 110 67 2 0 0 -4 -5 -9z m-4365 -157 c0 -2 -7 -4 -15
-4 -8 0 -15 4 -15 10 0 5 7 7 15 4 8 -4 15 -8 15 -10z m1430 -64 c0 -5 -2 -10
-4 -10 -3 0 -8 5 -11 10 -3 6 -1 10 4 10 6 0 11 -4 11 -10z m2115 -190 c-3 -5
-12 -10 -18 -10 -7 0 -6 4 3 10 19 12 23 12 15 0z m-150 -65 c-27 -13 -54 -24
-60 -24 -5 1 13 11 40 24 28 13 55 24 60 24 6 -1 -12 -11 -40 -24z m-85 -35
c-8 -5 -19 -10 -25 -10 -5 0 -3 5 5 10 8 5 20 10 25 10 6 0 3 -5 -5 -10z
m-110 -40 c-8 -5 -19 -10 -25 -10 -5 0 -3 5 5 10 8 5 20 10 25 10 6 0 3 -5 -5
-10z m-583 -142 c-2 -18 -4 -6 -4 27 0 33 2 48 4 33 2 -15 2 -42 0 -60z m393
72 c-8 -5 -19 -10 -25 -10 -5 0 -3 5 5 10 8 5 20 10 25 10 6 0 3 -5 -5 -10z
m612 -1732 l3 -693 684 -3 c645 -2 683 -3 676 -20 -3 -9 -50 -86 -103 -169
l-97 -153 -848 0 -847 0 2 790 3 790 26 25 c22 22 58 33 255 75 126 26 232 49
236 49 5 1 9 -311 10 -691z m-3901 388 c15 -8 143 -110 285 -229 379 -314 737
-607 754 -616 15 -9 54 22 818 656 123 101 236 189 251 194 14 5 141 8 281 7
l255 -3 3 -717 2 -718 -260 0 -260 0 -2 432 -3 431 -145 -119 c-758 -620 -913
-744 -933 -744 -13 0 -94 59 -207 152 -102 84 -338 278 -525 432 l-340 279 -5
-399 c-3 -219 -9 -406 -13 -415 -4 -8 -21 -23 -36 -32 -25 -15 -60 -17 -250
-17 l-221 0 0 633 c0 404 4 645 10 669 12 41 50 92 84 110 40 22 81 26 256 27
131 1 182 -3 201 -13z m4437 -1775 c20 -11 50 -33 65 -49 l29 -30 -38 -26 -38
-26 -26 25 c-51 48 -109 57 -175 25 -80 -39 -112 -157 -62 -230 37 -56 72 -75
132 -74 46 0 61 5 94 32 l40 32 35 -21 c20 -12 36 -24 36 -28 0 -15 -67 -71
-102 -85 -42 -18 -145 -21 -199 -6 -49 14 -113 71 -139 125 -47 97 -14 241 72
309 72 56 195 69 276 27z m643 18 c31 -7 64 -22 83 -40 l31 -28 -31 -31 -31
-32 -38 26 c-28 19 -51 26 -86 26 -53 0 -79 -18 -79 -55 0 -30 13 -37 119 -65
102 -28 146 -62 156 -120 9 -55 -10 -105 -52 -137 -30 -23 -48 -28 -110 -32
-90 -4 -149 11 -198 51 l-36 31 32 33 33 34 25 -24 c65 -62 192 -62 207 0 9
37 -17 58 -100 78 -132 32 -176 71 -176 155 0 60 51 114 125 132 45 10 69 10
126 -2z m-5344 -16 c3 -10 46 -115 96 -233 49 -118 91 -221 94 -227 4 -9 -9
-13 -45 -13 -55 0 -64 7 -81 63 l-13 37 -109 0 -110 0 -21 -50 -21 -50 -48 0
c-29 0 -49 4 -49 11 0 6 36 99 80 206 44 107 80 196 80 197 0 2 7 20 15 40 15
35 16 36 70 36 44 0 57 -4 62 -17z m698 -146 l120 -162 3 163 2 162 50 0 50 0
-2 -242 -3 -243 -45 -3 -46 -3 -113 152 c-62 83 -115 158 -118 165 -16 42 -23
-4 -23 -152 l0 -165 -47 3 -47 3 0 40 c1 22 2 131 2 243 l2 202 48 0 47 -1
120 -162z m914 -59 c119 -288 115 -268 53 -268 l-50 0 -18 50 -18 50 -112 0
-111 0 -21 -50 -21 -50 -52 0 c-37 0 -50 3 -46 13 25 58 178 428 188 455 7 19
16 22 62 22 l54 0 92 -222z m501 22 l0 -200 116 0 115 0 -3 -42 -3 -43 -162
-3 -163 -2 0 245 0 245 50 0 50 0 0 -200z m560 100 c34 -56 64 -99 67 -96 3 2
30 46 61 98 l57 93 57 3 58 3 -95 -149 -95 -148 0 -98 0 -97 -47 3 -48 3 -5
105 -5 105 -87 133 c-49 73 -88 135 -88 138 0 2 24 4 54 4 l54 0 62 -100z
m950 55 l0 -45 -75 0 -75 0 0 -201 0 -200 -47 3 c-45 3 -48 5 -44 28 2 14 0
103 -4 198 l-7 172 -74 0 -74 0 0 45 0 45 200 0 200 0 0 -45z m400 -190 c0
-129 0 -238 0 -242 0 -5 -21 -8 -47 -8 l-48 0 -3 243 -4 242 51 0 51 0 0 -235z"/>
<path d="M2191 4854 c0 -11 3 -14 6 -6 3 7 2 16 -1 19 -3 4 -6 -2 -5 -13z"/>
<path d="M2503 4823 c0 -14 8 -34 18 -44 10 -10 19 -14 19 -7 0 6 10 3 22 -8
15 -14 -25 46 -56 83 0 1 -2 -10 -3 -24z"/>
<path d="M2605 4710 c11 -13 14 -20 8 -16 -9 5 -13 0 -13 -14 0 -12 3 -19 8
-17 4 3 8 -8 9 -23 2 -26 -4 -33 -32 -40 -5 -1 -20 -6 -32 -11 -16 -6 -27 -4
-38 7 -8 9 -15 11 -15 5 0 -18 -27 -12 -35 7 -6 16 -7 16 -21 -2 -8 -11 -14
-15 -14 -10 0 20 -43 7 -72 -21 -20 -21 -28 -24 -28 -12 0 8 6 17 13 20 9 3 9
7 -2 20 -12 15 -10 17 15 18 16 1 33 1 37 0 5 -1 6 3 3 8 -3 5 -15 7 -26 4
-11 -3 -20 0 -20 6 0 6 -9 2 -20 -9 -11 -11 -24 -20 -29 -20 -12 0 -23 29 -16
41 4 5 -2 6 -11 2 -13 -5 -15 -3 -9 7 5 8 4 11 -2 7 -18 -11 2 -72 41 -131 40
-60 142 -147 163 -139 7 3 13 0 13 -7 0 -48 305 -174 529 -220 196 -40 358
-58 646 -71 244 -11 665 -3 665 13 0 5 -4 7 -9 3 -5 -3 -13 -1 -16 5 -4 6 -29
10 -56 9 -27 -2 -52 0 -56 4 -3 4 1 7 11 7 14 0 15 4 6 20 -6 11 -8 20 -4 20
3 0 0 8 -7 17 -12 15 -12 16 1 8 12 -6 13 -5 3 6 -7 7 -13 21 -13 31 0 12 -5
15 -17 11 -11 -4 -14 -3 -9 5 4 7 1 12 -10 12 -12 0 -15 -6 -11 -21 4 -16 3
-18 -9 -8 -7 6 -11 16 -8 21 4 6 -4 4 -17 -2 -13 -7 -21 -9 -17 -5 11 11 -23
64 -38 58 -6 -2 -15 0 -19 6 -3 6 -18 12 -33 12 -24 2 -25 2 -4 6 13 3 29 0
36 -6 10 -8 17 -7 25 3 20 24 -14 34 -124 35 -55 1 -164 6 -243 12 -113 9
-145 9 -157 -1 -13 -11 -14 -10 -10 1 4 12 -20 18 -117 33 -68 10 -136 20
-153 23 -16 3 -27 2 -23 -2 12 -13 -12 -35 -29 -28 -12 5 -14 3 -8 -8 6 -11 5
-12 -6 -1 -7 6 -23 12 -35 12 -12 0 -27 7 -34 16 -8 8 -9 14 -4 13 21 -4 28 2
14 11 -13 9 -13 10 0 10 8 1 -37 19 -100 40 -63 22 -122 37 -130 35 -8 -3 -22
0 -30 6 -11 8 -9 9 10 3 36 -10 26 -3 -75 49 -49 26 -83 41 -75 35 31 -26 11
-102 -26 -95 -35 7 -54 19 -47 30 3 6 1 7 -5 3 -6 -4 -8 -14 -5 -23 5 -12 3
-14 -8 -8 -12 8 -12 6 0 -8 12 -15 11 -17 -7 -17 -11 0 -25 7 -32 15 -12 14
-7 19 13 16 5 -1 6 3 2 8 -3 6 3 18 14 28 11 9 18 20 16 23 -3 4 4 15 15 25
19 17 19 19 3 39 -16 18 -14 17 17 -3 34 -23 34 -23 -5 13 -22 20 -49 41 -60
48 l-20 11 20 -23z m-280 -109 c3 -5 1 -12 -5 -16 -5 -3 -10 1 -10 9 0 18 6
21 15 7z m69 -13 c-5 -8 -2 -9 9 -5 20 8 29 -4 17 -23 -7 -11 -11 -11 -24 -1
-9 8 -16 11 -16 7 0 -16 3 -21 11 -18 5 1 9 -2 9 -8 0 -13 -6 -13 -30 2 -19
12 -19 13 2 35 23 25 34 30 22 11z m343 -60 c-3 -8 -6 -5 -6 6 -1 11 2 17 5
13 3 -3 4 -12 1 -19z m28 2 c3 -5 1 -10 -4 -10 -6 0 -11 5 -11 10 0 6 2 10 4
10 3 0 8 -4 11 -10z m-5 -40 c0 -5 -2 -10 -4 -10 -3 0 -8 5 -11 10 -3 6 -1 10
4 10 6 0 11 -4 11 -10z m34 -28 c3 -5 -1 -9 -9 -9 -8 0 -12 4 -9 9 3 4 7 8 9
8 2 0 6 -4 9 -8z m1076 -117 c0 -8 -8 -15 -17 -15 -15 0 -15 2 -4 9 11 7 10
10 -5 14 -16 4 -16 5 4 6 13 1 22 -5 22 -14z m-760 -5 c0 -5 -5 -10 -11 -10
-5 0 -7 5 -4 10 3 6 8 10 11 10 2 0 4 -4 4 -10z m955 -100 c3 -5 1 -10 -4 -10
-6 0 -11 5 -11 10 0 6 2 10 4 10 3 0 8 -4 11 -10z m9 -75 c-4 -8 -13 -15 -22
-15 -13 0 -12 3 4 15 24 18 25 18 18 0z"/>
<path d="M5528 4473 c7 -3 16 -2 19 1 4 3 -2 6 -13 5 -11 0 -14 -3 -6 -6z"/>
<path d="M5463 4463 c9 -2 25 -2 35 0 9 3 1 5 -18 5 -19 0 -27 -2 -17 -5z"/>
<path d="M3145 4451 c-3 -5 0 -13 6 -17 7 -4 9 -3 5 4 -3 5 0 13 6 15 9 4 10
6 1 6 -6 1 -14 -3 -18 -8z"/>
<path d="M4828 4393 c12 -2 30 -2 40 0 9 3 -1 5 -23 4 -22 0 -30 -2 -17 -4z"/>
<path d="M4703 4383 c15 -2 39 -2 55 0 15 2 2 4 -28 4 -30 0 -43 -2 -27 -4z"/>
<path d="M4345 4373 c-140 -3 -148 -5 -121 -19 18 -9 32 -11 35 -5 4 6 12 6
21 1 20 -13 33 -12 25 0 -4 6 33 11 102 12 135 2 162 3 170 12 3 3 -14 5 -38
4 -24 -1 -111 -4 -194 -5z"/>
<path d="M4071 4313 c-1 -13 16 -26 37 -29 10 -2 10 1 1 12 -6 7 -15 12 -19 9
-5 -3 -11 1 -13 7 -4 9 -6 10 -6 1z"/>
<path d="M4638 4123 c12 -2 30 -2 40 0 9 3 -1 5 -23 4 -22 0 -30 -2 -17 -4z"/>
<path d="M4473 4113 c15 -2 37 -2 50 0 12 2 0 4 -28 4 -27 0 -38 -2 -22 -4z"/>
<path d="M6495 5660 c-3 -5 -1 -10 4 -10 6 0 11 5 11 10 0 6 -2 10 -4 10 -3 0
-8 -4 -11 -10z"/>
<path d="M4750 5715 c0 -2 6 -8 13 -14 10 -8 14 -7 14 2 0 8 -6 14 -14 14 -7
0 -13 -1 -13 -2z"/>
<path d="M3907 1876 c-21 -53 -37 -98 -37 -101 0 -3 34 -5 75 -5 41 0 75 2 75
4 0 11 -63 182 -70 189 -4 4 -23 -35 -43 -87z"/>
<path d="M5464 1954 c-4 -10 -20 -53 -36 -94 -15 -41 -28 -78 -28 -82 0 -5 34
-8 75 -8 41 0 75 2 75 4 0 7 -71 190 -75 195 -3 2 -8 -5 -11 -15z"/>
</g>
</svg>
